<svg xmlns="http://www.w3.org/2000/svg" xml:space="preserve" viewBox="0 0 171.9 30"><path fill="#384044" d="M40.901 25.196c2.5-.1 2.9-.1 3.7-.2 2.2-.3 3.2-1.5 3.2-3.8V.696h5.2v20.5c.1 2.1-.5 4.3-1.9 5.9-1.5 1.4-3.6 2.3-5.7 2.3h-.1c-1.5.2-2.9.2-4.4.2v-4.4zM59.701 29.196V.696h18.3v4.4h-13.2v7.4h12.1v4.3h-12.1v8h13.2v4.3l-18.3.1zM103.201 29.196l-14.2-19.4v19.4h-4.9V.696h4l14.2 19.4V.696h4.8v28.5h-3.9zM120.501 29.196v-24h-8.8v-4.5h22.8v4.5h-8.8v24h-5.2zM139.601.696h5.2v28.5h-5.2zM167.401 14.396c-1.7-.9-3.6-1.6-5.5-1.9-1.6-.3-3.1-.8-4.5-1.5-.8-.6-1.3-1.5-1.3-2.5 0-1.1.5-2.1 1.4-2.7 1.2-.8 2.7-1.2 4.1-1.1 2.3 0 4.5.6 6.4 1.9l2.2-3.6c-1-.7-2.1-1.2-3.2-1.6-1.7-.6-3.6-.9-5.4-.9-1.9 0-3.8.4-5.5 1.1-1.5.7-2.8 1.7-3.8 3.1-.8 1.2-1.2 2.6-1.2 4-.1 1.4.3 2.9 1 4.1.8 1.1 1.9 2 3.2 2.6 1.8.8 3.7 1.3 5.7 1.7 2.5.4 3.7.7 4.9 1.8.6.7 1 1.6.9 2.5 0 1.1-.6 2.2-1.5 2.8-1.3.8-2.7 1.1-4.2 1-1.6 0-3.2-.3-4.7-.8-1.4-.5-2.7-1.2-3.9-2.1l-2.5 3.8c1.6 1.1 3.3 2 5.2 2.6 1.9.6 3.9.9 5.9.9 1.9 0 3.9-.3 5.7-1 1.5-.6 2.9-1.6 3.8-3 .9-1.3 1.3-2.9 1.3-4.5 0-2.9-1.8-5.6-4.5-6.7"/><path fill="#b90845" d="M25.201 3.596h2.2v11.3h-2.2z"/><path fill="#d61b26" d="M29.901 14.996c0 2-1.6 3.6-3.6 3.6s-3.6-1.6-3.6-3.6 1.6-3.6 3.6-3.6c2-.1 3.6 1.5 3.6 3.6 0-.1 0-.1 0 0"/><path fill="#d61b26" d="M15.001 13.896h11.3v2.3h-11.3z"/><path fill="#ef7918" d="M18.601 14.996c0 2-1.6 3.6-3.6 3.6s-3.6-1.6-3.6-3.6 1.6-3.6 3.6-3.6c2-.1 3.6 1.5 3.6 3.6 0-.1 0-.1 0 0"/><path fill="#ef7918" d="M13.801 14.996h2.3v11.4h-2.3z"/><path fill="#007fc8" d="M2.501 14.996h2.3v11.4h-2.3z"/><path fill="#0068a3" d="M18.601 3.596c0 2-1.6 3.6-3.6 3.6s-3.6-1.6-3.6-3.6 1.6-3.6 3.6-3.6 3.6 1.6 3.6 3.6"/><path fill="#b90845" d="M29.901 3.596c0 2-1.6 3.6-3.6 3.6s-3.6-1.6-3.6-3.6 1.6-3.6 3.6-3.6 3.6 1.6 3.6 3.6"/><path fill="#00a3e2" d="M7.201 26.396c0 2-1.6 3.6-3.6 3.6s-3.6-1.6-3.6-3.6 1.6-3.6 3.6-3.6 3.6 1.6 3.6 3.6"/><path fill="#009f98" d="M29.901 26.396c0 2-1.6 3.6-3.6 3.6s-3.6-1.6-3.6-3.6 1.6-3.6 3.6-3.6 3.6 1.6 3.6 3.6"/><path fill="#007fc8" d="M7.201 14.996c0 2-1.6 3.6-3.6 3.6s-3.6-1.6-3.6-3.6 1.6-3.6 3.6-3.6c2-.1 3.6 1.5 3.6 3.6 0-.1 0-.1 0 0"/><path fill="#f7a400" d="M18.601 26.396c0 2-1.6 3.6-3.6 3.6s-3.6-1.6-3.6-3.6 1.6-3.6 3.6-3.6 3.6 1.6 3.6 3.6"/></svg>